# xmcd
#
# Track frame offsets: 
#        150
#        545
#        920
#        1295
#        1670
#        2045
#        2420
#        2795
#        3170
#        3545
#        3920
#        4295
#        4670
#        24827
#        43977
#        60865
#        82232
#        99655
#        117385
#        136292
#        157952
#        178392
#        197675
#        224282
#        245132
#
# Disc length: 4208 seconds
#
# Revision: 8
# Processed by: cddbd v1.5.2PL0 Copyright (c) Steve Scherf et al.
# Submitted via: ExactAudioCopy v0.99pb4
#
DISCID=15106e19
DTITLE=KoRn - Follow The Leader
DYEAR=1998
DGENRE=Metal
TTITLE0=1
TTITLE1=2
TTITLE2=3
TTITLE3=4
TTITLE4=5
TTITLE5=6
TTITLE6=7
TTITLE7=8
TTITLE8=9
TTITLE9=10
TTITLE10=11
TTITLE11=12
TTITLE12=It's On
TTITLE13=Freak On A Leash
TTITLE14=Got The Life
TTITLE15=Dead Bodies Everywhere
TTITLE16=Children Of The Korn
TTITLE17=B.B.K.
TTITLE18=Pretty
TTITLE19=All In The Family
TTITLE20=Reclaim My Place
TTITLE21=Justin
TTITLE22=Seed
TTITLE23=Cameltosis
TTITLE24=My Gift To You
EXTD=YEAR: 2006
EXTT0=
EXTT1=
EXTT2=
EXTT3=
EXTT4=
EXTT5=
EXTT6=
EXTT7=
EXTT8=
EXTT9=
EXTT10=
EXTT11=
EXTT12=
EXTT13=
EXTT14=
EXTT15=
EXTT16=
EXTT17=
EXTT18=
EXTT19=
EXTT20=
EXTT21=
EXTT22=
EXTT23=
EXTT24=
PLAYORDER=
